<svg id="visual" viewBox="0 0 960 540" width="960" height="540" xmlns="http://www.w3.org/2000/svg" xmlns:xlink="http://www.w3.org/1999/xlink" version="1.1"><rect x="0" y="0" width="960" height="540" fill="#001220"></rect><path d="M0 366L22.8 363.8C45.7 361.7 91.3 357.3 137 360C182.7 362.7 228.3 372.3 274 378.2C319.7 384 365.3 386 411.2 375.5C457 365 503 342 548.8 336.3C594.7 330.7 640.3 342.3 686 356.2C731.7 370 777.3 386 823 390.8C868.7 395.7 914.3 389.3 937.2 386.2L960 383L960 541L937.2 541C914.3 541 868.7 541 823 541C777.3 541 731.7 541 686 541C640.3 541 594.7 541 548.8 541C503 541 457 541 411.2 541C365.3 541 319.7 541 274 541C228.3 541 182.7 541 137 541C91.3 541 45.7 541 22.8 541L0 541Z" fill="#fbae3c"></path><path d="M0 421L22.8 413.7C45.7 406.3 91.3 391.7 137 386.3C182.7 381 228.3 385 274 390C319.7 395 365.3 401 411.2 407.5C457 414 503 421 548.8 415.7C594.7 410.3 640.3 392.7 686 388.7C731.7 384.7 777.3 394.3 823 402.5C868.7 410.7 914.3 417.3 937.2 420.7L960 424L960 541L937.2 541C914.3 541 868.7 541 823 541C777.3 541 731.7 541 686 541C640.3 541 594.7 541 548.8 541C503 541 457 541 411.2 541C365.3 541 319.7 541 274 541C228.3 541 182.7 541 137 541C91.3 541 45.7 541 22.8 541L0 541Z" fill="#ff9e45"></path><path d="M0 449L22.8 439.8C45.7 430.7 91.3 412.3 137 409C182.7 405.7 228.3 417.3 274 428C319.7 438.7 365.3 448.3 411.2 450.2C457 452 503 446 548.8 438.5C594.7 431 640.3 422 686 416.2C731.7 410.3 777.3 407.7 823 413.3C868.7 419 914.3 433 937.2 440L960 447L960 541L937.2 541C914.3 541 868.7 541 823 541C777.3 541 731.7 541 686 541C640.3 541 594.7 541 548.8 541C503 541 457 541 411.2 541C365.3 541 319.7 541 274 541C228.3 541 182.7 541 137 541C91.3 541 45.7 541 22.8 541L0 541Z" fill="#ff8e50"></path><path d="M0 443L22.8 446.7C45.7 450.3 91.3 457.7 137 464.7C182.7 471.7 228.3 478.3 274 476.3C319.7 474.3 365.3 463.7 411.2 456.3C457 449 503 445 548.8 448.2C594.7 451.3 640.3 461.7 686 467.5C731.7 473.3 777.3 474.7 823 474.5C868.7 474.3 914.3 472.7 937.2 471.8L960 471L960 541L937.2 541C914.3 541 868.7 541 823 541C777.3 541 731.7 541 686 541C640.3 541 594.7 541 548.8 541C503 541 457 541 411.2 541C365.3 541 319.7 541 274 541C228.3 541 182.7 541 137 541C91.3 541 45.7 541 22.8 541L0 541Z" fill="#fe7f5c"></path><path d="M0 507L22.8 505.8C45.7 504.7 91.3 502.3 137 498.2C182.7 494 228.3 488 274 486.8C319.7 485.7 365.3 489.3 411.2 489.5C457 489.7 503 486.3 548.8 484.3C594.7 482.3 640.3 481.7 686 482.5C731.7 483.3 777.3 485.7 823 488.7C868.7 491.7 914.3 495.3 937.2 497.2L960 499L960 541L937.2 541C914.3 541 868.7 541 823 541C777.3 541 731.7 541 686 541C640.3 541 594.7 541 548.8 541C503 541 457 541 411.2 541C365.3 541 319.7 541 274 541C228.3 541 182.7 541 137 541C91.3 541 45.7 541 22.8 541L0 541Z" fill="#fa7268"></path></svg>