<svg id="visual" viewBox="0 0 960 540" width="960" height="540" xmlns="http://www.w3.org/2000/svg" xmlns:xlink="http://www.w3.org/1999/xlink" version="1.1"><rect x="0" y="0" width="960" height="540" fill="#001220"></rect><defs><linearGradient id="grad1_0" x1="43.8%" y1="0%" x2="100%" y2="100%"><stop offset="14.444444444444446%" stop-color="#001220" stop-opacity="1"></stop><stop offset="85.55555555555554%" stop-color="#001220" stop-opacity="1"></stop></linearGradient></defs><defs><linearGradient id="grad2_0" x1="0%" y1="0%" x2="56.3%" y2="100%"><stop offset="14.444444444444446%" stop-color="#001220" stop-opacity="1"></stop><stop offset="85.55555555555554%" stop-color="#001220" stop-opacity="1"></stop></linearGradient></defs><g transform="translate(960, 0)"><path d="M0 486C-48.3 447.7 -96.6 409.5 -163 393.6C-229.4 377.7 -313.9 384.2 -343.7 343.7C-373.4 303.1 -348.5 215.5 -363.1 150.4C-377.7 85.3 -431.8 42.6 -486 0L0 0Z" fill="#FBAE3C"></path></g><g transform="translate(0, 540)"><path d="M0 -486C54.7 -461 109.3 -436 173 -417.6C236.6 -399.1 309.2 -387.2 343.7 -343.7C378.1 -300.1 374.4 -224.8 391.7 -162.3C409.1 -99.7 447.5 -49.9 486 0L0 0Z" fill="#FBAE3C"></path></g></svg>